<svg xmlns="http://www.w3.org/2000/svg" width="61" height="62" viewBox="0 0 61 62" fill="none">
  <g clip-path="url(#clip0_900_239)">
    <path d="M44.4791 62C35.3698 62 27.9583 54.467 27.9583 45.2084C27.9583 35.9497 35.3698 28.4167 44.4791 28.4167C53.5884 28.4167 60.9999 35.9497 60.9999 45.2084C60.9999 54.467 53.5884 62 44.4791 62ZM44.4791 31C36.7702 31 30.4999 37.3731 30.4999 45.2084C30.4999 53.0436 36.7702 59.4167 44.4791 59.4167C52.188 59.4167 58.4583 53.0436 58.4583 45.2084C58.4583 37.3731 52.188 31 44.4791 31Z" fill="white"></path>
    <path d="M41.9376 51.6666C41.6021 51.6666 41.2767 51.5297 41.0378 51.2895L35.9545 46.1228C35.4589 45.6191 35.4589 44.8001 35.9545 44.2964C36.4501 43.7926 37.2558 43.7926 37.7514 44.2964L41.874 48.4866L49.8752 39.1917C50.3378 38.6518 51.1409 38.5976 51.6696 39.0703C52.1983 39.5405 52.2516 40.3568 51.7891 40.8941L42.8932 51.2275C42.6619 51.4961 42.329 51.6563 41.9782 51.6666C41.9655 51.6666 41.9503 51.6666 41.9376 51.6666Z" fill="white"></path>
    <path d="M25.4345 27.125C24.9668 27.125 24.5195 26.8641 24.2958 26.412C23.9832 25.7739 24.2373 24.9963 24.8651 24.6786L48.9957 12.4078C49.3871 12.2063 49.8548 12.2269 50.231 12.4646C50.6046 12.6997 50.8333 13.1156 50.8333 13.5625V24.5417C50.8333 25.2547 50.264 25.8333 49.5625 25.8333C48.861 25.8333 48.2917 25.2547 48.2917 24.5417V15.6524L26.0013 26.9881C25.8183 27.0811 25.6251 27.125 25.4345 27.125Z" fill="white"></path>
    <path d="M24.128 51.6667C23.9196 51.6667 23.7061 51.615 23.5104 51.5039L0.650667 38.5873C0.251625 38.3599 0 37.9285 0 37.4583V13.5625C0 13.1156 0.22875 12.6997 0.602375 12.4646C0.976 12.2269 1.44875 12.2063 1.83763 12.4078L25.9682 24.6786C26.596 24.9989 26.8502 25.7739 26.5375 26.412C26.2249 27.0501 25.4599 27.3084 24.8321 26.9907L2.54167 15.6524V36.6988L24.7482 49.2461C25.3608 49.5923 25.5819 50.3776 25.2413 51.0028C25.0075 51.4264 24.5754 51.6667 24.128 51.6667Z" fill="white"></path>
    <path d="M49.5625 14.8543C49.3719 14.8543 49.1787 14.8104 48.9957 14.7174L25.4014 2.73592L1.84016 14.7174C1.21237 15.0326 0.447326 14.7794 0.134701 14.1413C-0.177924 13.5033 0.073701 12.7257 0.701493 12.4079L24.8321 0.13709C25.1905 -0.0437435 25.6124 -0.0437435 25.9682 0.13709L50.1293 12.4079C50.7571 12.7283 51.0112 13.5033 50.6986 14.1413C50.4775 14.5934 50.0276 14.8543 49.5625 14.8543Z" fill="white"></path>
    <path d="M12.8177 30.3258C12.1162 30.3258 11.5469 29.7471 11.5469 29.0341V19.4293C11.5469 18.941 11.8188 18.4941 12.2484 18.2745L36.379 6.00368C37.0067 5.68593 37.7692 5.94427 38.0844 6.58235C38.3996 7.22043 38.1429 7.99543 37.5151 8.31577L14.0885 20.2301V29.0367C14.0885 29.7497 13.5217 30.3258 12.8177 30.3258Z" fill="white"></path>
  </g>
  <defs>
    <clipPath id="clip0_900_239">
      <rect width="70" height="70" fill="white"></rect>
    </clipPath>
  </defs>
</svg>
