<svg xmlns="http://www.w3.org/2000/svg" width="65" height="64" viewBox="0 0 65 64" fill="none">
  <g clip-path="url(#clip0_900_249)">
    <path d="M38.8335 10.6667H25.5002C25.0708 10.6667 24.6682 10.4613 24.4175 10.112C24.1668 9.76533 24.1002 9.31733 24.2362 8.912L26.9028 0.912C27.0842 0.368 27.5935 0 28.1668 0H36.1668C36.7402 0 37.2495 0.368 37.4308 0.912L40.0975 8.912C40.2335 9.31733 40.1642 9.76533 39.9162 10.1147C39.6655 10.4613 39.2628 10.6667 38.8335 10.6667ZM27.3508 8H36.9828L35.2068 2.66667H29.1268L27.3508 8Z" fill="#FFFFFF"></path>
    <path d="M32.1668 16C31.4308 16 30.8335 15.4027 30.8335 14.6667V9.33333C30.8335 8.59733 31.4308 8 32.1668 8C32.9028 8 33.5002 8.59733 33.5002 9.33333V14.6667C33.5002 15.4027 32.9028 16 32.1668 16Z" fill="#FFFFFF"></path>
    <path d="M32.1668 24C29.2255 24 26.8335 21.608 26.8335 18.6666C26.8335 17.9306 27.4308 17.3333 28.1668 17.3333C28.9028 17.3333 29.5002 17.9306 29.5002 18.6666C29.5002 20.136 30.6975 21.3333 32.1668 21.3333C33.6362 21.3333 34.8335 20.136 34.8335 18.6666C34.8335 17.1973 33.6362 16 32.1668 16C31.4308 16 30.8335 15.4026 30.8335 14.6666C30.8335 13.9306 31.4308 13.3333 32.1668 13.3333C35.1082 13.3333 37.5002 15.7253 37.5002 18.6666C37.5002 21.608 35.1082 24 32.1668 24Z" fill="#FFFFFF"></path>
    <path d="M9.49999 40C9.08132 40 8.66799 39.8027 8.40932 39.4374C7.98532 38.8347 8.12932 38.0027 8.72932 37.5787L31.396 21.5787C32.0013 21.1547 32.8307 21.2987 33.2547 21.8987C33.6787 22.5014 33.5347 23.3334 32.9347 23.7574L10.268 39.7574C10.036 39.92 9.76666 40 9.49999 40Z" fill="#FFFFFF"></path>
    <path d="M54.8334 40C54.5668 40 54.3001 39.92 54.0654 39.7574L31.3988 23.7574C30.7961 23.3307 30.6548 22.5014 31.0788 21.8987C31.5054 21.2987 32.3348 21.1547 32.9374 21.5787L55.6041 37.5787C56.2068 38.0054 56.3481 38.8347 55.9241 39.4374C55.6628 39.8027 55.2521 40 54.8334 40Z" fill="#FFFFFF"></path>
    <path d="M54.8335 64H9.50016C5.8255 64 2.8335 61.008 2.8335 57.3333V44C2.8335 40.3253 5.8255 37.3333 9.50016 37.3333H54.8335C58.5082 37.3333 61.5002 40.3253 61.5002 44V57.3333C61.5002 61.008 58.5082 64 54.8335 64ZM9.50016 40C7.29483 40 5.50016 41.7946 5.50016 44V57.3333C5.50016 59.5386 7.29483 61.3333 9.50016 61.3333H54.8335C57.0388 61.3333 58.8335 59.5386 58.8335 57.3333V44C58.8335 41.7946 57.0388 40 54.8335 40H9.50016Z" fill="#FFFFFF"></path>
    <path d="M20.1668 58.6667C19.4308 58.6667 18.8335 58.0694 18.8335 57.3334V44C18.8335 43.264 19.4308 42.6667 20.1668 42.6667C20.9028 42.6667 21.5002 43.264 21.5002 44V57.3334C21.5002 58.0694 20.9028 58.6667 20.1668 58.6667Z" fill="#FFFFFF"></path>
    <path d="M12.1668 58.6667C11.4308 58.6667 10.8335 58.0694 10.8335 57.3334V44C10.8335 43.264 11.4308 42.6667 12.1668 42.6667C12.9028 42.6667 13.5002 43.264 13.5002 44V57.3334C13.5002 58.0694 12.9028 58.6667 12.1668 58.6667Z" fill="#FFFFFF"></path>
    <path d="M28.1668 58.6667C27.4308 58.6667 26.8335 58.0694 26.8335 57.3334V44C26.8335 43.264 27.4308 42.6667 28.1668 42.6667C28.9028 42.6667 29.5002 43.264 29.5002 44V57.3334C29.5002 58.0694 28.9028 58.6667 28.1668 58.6667Z" fill="#FFFFFF"></path>
    <path d="M36.1668 58.6667C35.4308 58.6667 34.8335 58.0694 34.8335 57.3334V44C34.8335 43.264 35.4308 42.6667 36.1668 42.6667C36.9028 42.6667 37.5002 43.264 37.5002 44V57.3334C37.5002 58.0694 36.9028 58.6667 36.1668 58.6667Z" fill="#FFFFFF"></path>
    <path d="M44.1668 58.6667C43.4308 58.6667 42.8335 58.0694 42.8335 57.3334V44C42.8335 43.264 43.4308 42.6667 44.1668 42.6667C44.9028 42.6667 45.5002 43.264 45.5002 44V57.3334C45.5002 58.0694 44.9028 58.6667 44.1668 58.6667Z" fill="#FFFFFF"></path>
    <path d="M52.1668 58.6667C51.4308 58.6667 50.8335 58.0694 50.8335 57.3334V44C50.8335 43.264 51.4308 42.6667 52.1668 42.6667C52.9028 42.6667 53.5002 43.264 53.5002 44V57.3334C53.5002 58.0694 52.9028 58.6667 52.1668 58.6667Z" fill="#FFFFFF"></path>
  </g>
  <defs>
    <clipPath id="clip0_900_249">
      <rect width="64" height="64" fill="#FFFFFF" transform="translate(0.166748)"></rect>
    </clipPath>
  </defs>
</svg>
