<svg xmlns="http://www.w3.org/2000/svg" width="65" height="64" viewBox="0 0 65 64" fill="none">
  <g clip-path="url(#clip0_900_265)">
    <path d="M58.0866 60.944C57.9586 60.944 57.828 60.9254 57.7 60.888C56.996 60.6747 56.596 59.9307 56.812 59.2267L61.8013 42.736L43.5 34.8507L25.2013 42.736L30.1906 59.2267C30.404 59.9307 30.0066 60.6747 29.3026 60.888C28.5986 61.1014 27.8546 60.7014 27.6386 59.9974L22.3053 42.3707C22.108 41.7227 22.4306 41.0294 23.0546 40.76L42.9746 32.1734C43.3106 32.0267 43.6946 32.0267 44.0306 32.1734L63.9506 40.76C64.5746 41.0294 64.8946 41.72 64.7 42.3707L59.3666 59.9974C59.188 60.5734 58.66 60.944 58.0866 60.944Z" fill="#FFFFFF"></path>
    <path d="M63.5001 64C59.5401 64 55.8975 62.0853 53.7615 58.8826C53.5481 58.568 53.0121 58.5626 52.7961 58.8826C50.6575 62.0853 47.0175 64 43.0548 64C39.0921 64 35.4521 62.0853 33.3135 58.8826C33.0441 58.4826 32.6175 58.4826 32.3508 58.8826C30.2148 62.0853 26.5721 64 22.6121 64C21.8761 64 21.2788 63.4026 21.2788 62.6666C21.2788 61.9306 21.8735 61.3333 22.6121 61.3333C25.6815 61.3333 28.4921 59.864 30.1348 57.4026C31.3055 55.6426 34.3641 55.6426 35.5348 57.4026C37.1748 59.864 39.9881 61.3333 43.0548 61.3333C46.1215 61.3333 48.9348 59.864 50.5748 57.4026C51.7481 55.6453 54.8068 55.6453 55.9775 57.4026C57.6201 59.864 60.4335 61.3333 63.5001 61.3333C64.2361 61.3333 64.8335 61.9306 64.8335 62.6666C64.8335 63.4026 64.2361 64 63.5001 64Z" fill="#FFFFFF"></path>
    <path d="M43.5 34.72C42.764 34.72 42.1667 34.1227 42.1667 33.3867V29.3334H36.8333C36.0973 29.3334 35.5 28.736 35.5 28C35.5 27.264 36.0973 26.6667 36.8333 26.6667H43.5C44.236 26.6667 44.8333 27.264 44.8333 28V33.3867C44.8333 34.1227 44.236 34.72 43.5 34.72Z" fill="#FFFFFF"></path>
    <path d="M28.8333 40.64C28.0973 40.64 27.5 40.0427 27.5 39.3067V36C27.5 35.264 28.0973 34.6667 28.8333 34.6667C29.5693 34.6667 30.1667 35.264 30.1667 36V39.3067C30.1667 40.0454 29.5693 40.64 28.8333 40.64Z" fill="#FFFFFF"></path>
    <path d="M58.167 40.64C57.431 40.64 56.8337 40.0427 56.8337 39.3067V29.3334H44.8337V33.3867C44.8337 34.1227 44.2363 34.72 43.5003 34.72C42.7643 34.72 42.167 34.1227 42.167 33.3867V28C42.167 27.264 42.7643 26.6667 43.5003 26.6667H58.167C58.903 26.6667 59.5003 27.264 59.5003 28V39.3067C59.5003 40.0454 58.903 40.64 58.167 40.64Z" fill="#FFFFFF"></path>
    <path d="M50.167 29.3333C49.431 29.3333 48.8337 28.736 48.8337 28V18.6667H39.5003C38.7643 18.6667 38.167 18.0693 38.167 17.3333C38.167 16.5973 38.7643 16 39.5003 16H50.167C50.903 16 51.5003 16.5973 51.5003 17.3333V28C51.5003 28.736 50.903 29.3333 50.167 29.3333Z" fill="#FFFFFF"></path>
    <path d="M43.5003 18.6667C42.7643 18.6667 42.167 18.0693 42.167 17.3333V9.33333C42.167 8.59733 42.7643 8 43.5003 8C44.2363 8 44.8337 8.59733 44.8337 9.33333V17.3333C44.8337 18.0693 44.2363 18.6667 43.5003 18.6667Z" fill="#FFFFFF"></path>
    <path d="M18.1668 34.6667C8.6095 34.6667 0.833496 26.8907 0.833496 17.3333C0.833496 7.776 8.6095 0 18.1668 0C27.7242 0 35.5002 7.776 35.5002 17.3333C35.5002 26.8907 27.7242 34.6667 18.1668 34.6667ZM18.1668 2.66667C10.0788 2.66667 3.50016 9.248 3.50016 17.3333C3.50016 25.4187 10.0788 32 18.1668 32C26.2548 32 32.8335 25.4187 32.8335 17.3333C32.8335 9.248 26.2548 2.66667 18.1668 2.66667Z" fill="#FFFFFF"></path>
    <path d="M12.8336 33.7333C12.0976 33.7333 11.5002 33.136 11.5002 32.4V2.26668C11.5002 1.53068 12.0976 0.93335 12.8336 0.93335C13.5696 0.93335 14.1669 1.52802 14.1669 2.26668V32.4C14.1669 33.1387 13.5696 33.7333 12.8336 33.7333Z" fill="#FFFFFF"></path>
    <path d="M23.5003 33.7333C22.7643 33.7333 22.167 33.136 22.167 32.4V2.26668C22.167 1.53068 22.7643 0.93335 23.5003 0.93335C24.2363 0.93335 24.8337 1.52802 24.8337 2.26668V32.4C24.8337 33.1387 24.2363 33.7333 23.5003 33.7333Z" fill="#FFFFFF"></path>
    <path d="M33.2335 13.3334H3.10018C2.36418 13.3334 1.76685 12.736 1.76685 12C1.76685 11.264 2.36418 10.6667 3.10018 10.6667H33.2335C33.9695 10.6667 34.5668 11.264 34.5668 12C34.5668 12.736 33.9695 13.3334 33.2335 13.3334Z" fill="#FFFFFF"></path>
    <path d="M33.2335 24H3.10018C2.36418 24 1.76685 23.4026 1.76685 22.6666C1.76685 21.9306 2.36418 21.3333 3.10018 21.3333H33.2335C33.9695 21.3333 34.5668 21.9306 34.5668 22.6666C34.5668 23.4026 33.9695 24 33.2335 24Z" fill="#FFFFFF"></path>
  </g>
  <defs>
    <clipPath id="clip0_900_265">
      <rect width="64" height="64" fill="#FFFFFF" transform="translate(0.833496)"></rect>
    </clipPath>
  </defs>
</svg>
