<svg xmlns="http://www.w3.org/2000/svg" width="65" height="64" viewBox="0 0 65 64" fill="none">
  <g clip-path="url(#clip0_900_317)">
    <path d="M20.0575 63.9973C19.9562 63.9973 19.8575 63.9947 19.7562 63.9867C18.5935 63.8987 17.5295 63.3067 16.8362 62.3653L11.1268 54.5493C10.9162 54.2747 10.7162 54.072 10.4948 53.9147L2.13215 47.744C1.20415 47.0773 0.606817 46.0267 0.50815 44.88C0.406816 43.712 0.822817 42.56 1.65215 41.712C2.88415 40.48 4.75615 40.136 6.32682 40.84L13.1242 43.8133L26.3455 29.5493C26.7828 29.0853 26.7855 28.568 26.7482 28.3013C26.6842 27.84 26.4202 27.4373 26.0228 27.1973L3.79615 15.4187C2.61215 14.712 1.88148 13.5787 1.72948 12.28C1.57482 10.9867 2.02282 9.72 2.95348 8.808C3.83882 7.92533 5.12948 7.55733 6.31882 7.856L38.7242 14.696C39.2522 14.8107 39.8015 14.6427 40.1828 14.248L51.7988 1.91467C52.9481 0.696 54.9241 0 57.2201 0C59.4868 0 61.4628 0.677333 62.6441 1.856C63.8468 3.05867 64.5401 5.16267 64.5002 7.48267C64.4601 9.704 63.7641 11.608 62.5855 12.7093L53.0175 21.744C52.4815 22.2507 51.6361 22.224 51.1321 21.6907C50.6255 21.1547 50.6495 20.312 51.1855 19.8053L60.7588 10.7653C61.3881 10.176 61.8068 8.872 61.8335 7.43467C61.8601 5.872 61.4388 4.42133 60.7588 3.74133C60.1055 3.088 58.7162 2.66667 57.2201 2.66667C55.7001 2.66667 54.3641 3.08 53.7348 3.744L42.1108 16.088C41.0708 17.1627 39.6015 17.6133 38.1642 17.304L5.71882 10.4507C5.38815 10.368 5.06548 10.472 4.83082 10.704C4.48415 11.0427 4.32415 11.5013 4.38015 11.9707C4.43615 12.4427 4.70015 12.8533 5.10815 13.0987L27.3375 24.8773C28.4948 25.5733 29.2202 26.6747 29.3935 27.9387C29.5642 29.1947 29.1668 30.4427 28.2975 31.368L14.4388 46.32C14.0522 46.7387 13.4468 46.8613 12.9268 46.6347L5.24682 43.2747C4.67615 43.016 3.98548 43.1493 3.55082 43.584C3.27615 43.864 3.13215 44.2533 3.16682 44.6453C3.20148 45.0267 3.39082 45.36 3.70548 45.5867L12.0655 51.7547C12.4868 52.056 12.8735 52.4373 13.2655 52.9493L18.9908 60.7867C19.2201 61.0987 19.5748 61.296 19.9615 61.3253C20.3375 61.3547 20.7002 61.2213 20.9722 60.9493C21.4255 60.5093 21.5508 59.8293 21.3028 59.24L17.9455 51.5733C17.7188 51.0533 17.8442 50.448 18.2602 50.064L24.9535 43.8507C25.4895 43.3493 26.3375 43.3787 26.8388 43.92C27.3402 44.4613 27.3082 45.304 26.7695 45.8053L20.7695 51.376L23.7482 58.1893C24.4335 59.7973 24.0682 61.6667 22.8415 62.856C22.1108 63.584 21.1055 63.9973 20.0575 63.9973Z" fill="#FFFFFF"></path>
    <path d="M48.5 64C48.324 64 48.148 63.9653 47.9827 63.8933C47.348 63.6293 32.5 57.2107 32.5 44.096V32.952C32.5 32.3813 32.8653 31.872 33.4067 31.688L48.0733 26.736C48.3507 26.6427 48.6493 26.6427 48.9267 26.736L63.5933 31.688C64.1347 31.8693 64.5 32.3787 64.5 32.952V44.096C64.5 57.2107 49.652 63.6294 49.0173 63.896C48.852 63.9654 48.676 64 48.5 64ZM35.1667 33.9093V44.096C35.1667 54.1893 45.98 59.984 48.5 61.2C51.0173 59.9813 61.8333 54.1653 61.8333 44.096V33.9093L48.5 29.408L35.1667 33.9093Z" fill="#FFFFFF"></path>
    <path d="M47.1667 50.6667C47.1427 50.6667 47.1161 50.6667 47.0921 50.664C46.7134 50.6427 46.3614 50.4613 46.1241 50.1653L40.7907 43.4987C40.3321 42.9227 40.4254 42.0853 40.9987 41.624C41.5747 41.1653 42.4147 41.2587 42.8734 41.832L47.2761 47.336L55.5561 39.056C56.0761 38.536 56.9214 38.536 57.4414 39.056C57.9614 39.576 57.9614 40.4213 57.4414 40.9413L48.1081 50.2747C47.8601 50.528 47.5187 50.6667 47.1667 50.6667Z" fill="#FFFFFF"></path>
</g>
<defs>
<clipPath id="clip0_900_317">
<rect width="64" height="64" fill="#FFFFFF" transform="translate(0.5)"></rect>
</clipPath>
</defs>
</svg>
