<svg xmlns="http://www.w3.org/2000/svg" fill="none" height="62" viewBox="0 0 62 62" width="62"><path d="m14.1376 47.1251 21.4681-11.5194 11.5194-21.4681-21.4681 11.5194zm16.4937-13.0903c-.9643 0-1.7726-.3261-2.4249-.9785-.6524-.6523-.9785-1.4606-.9785-2.425 0-.9643.3261-1.7726.9785-2.4249.6523-.6524 1.4606-.9785 2.4249-.9785.9644 0 1.7727.3261 2.425.9785.6524.6523.9785 1.4606.9785 2.4249 0 .9644-.3261 1.7727-.9785 2.425-.6523.6524-1.4606.9785-2.425.9785zm.0115 27.2279c-4.2359 0-8.2182-.8038-11.9471-2.4113-3.7289-1.6076-6.9726-3.7893-9.73101-6.545-2.75835-2.7559-4.94206-5.9965-6.55111-9.7219-1.609054-3.7254-2.41358-7.706-2.41358-11.9417 0-4.2359.803761-8.2182 2.41128-11.9471 1.60758-3.7289 3.78927-6.9726 6.54507-9.73101 2.75585-2.75835 5.99645-4.94205 9.72175-6.55111 3.7255-1.609051 7.7061-2.41358 11.9418-2.41358 4.2359 0 8.2182.80376 11.9471 2.41128 3.7289 1.60758 6.9726 3.78927 9.731 6.54507 2.7584 2.75585 4.9421 5.99645 6.5511 9.72175 1.6091 3.7255 2.4136 7.7061 2.4136 11.9418 0 4.2359-.8038 8.2182-2.4113 11.9471-1.6076 3.7289-3.7893 6.9726-6.545 9.731-2.7559 2.7584-5.9965 4.9421-9.7219 6.5511-3.7254 1.6091-7.706 2.4136-11.9417 2.4136zm-.0115-3.4035c7.6012 0 14.0394-2.6377 19.3148-7.9131s7.9131-11.7136 7.9131-19.3148c0-7.6011-2.6377-14.0393-7.9131-19.3147-5.2754-5.27542-11.7136-7.91312-19.3148-7.91312-7.6011 0-14.0393 2.6377-19.3147 7.91312-5.27542 5.2754-7.91312 11.7136-7.91312 19.3147 0 7.6012 2.6377 14.0394 7.91312 19.3148 5.2754 5.2754 11.7136 7.9131 19.3147 7.9131z" fill="#1b1b1b"></path></svg>