<svg xmlns="http://www.w3.org/2000/svg" fill="none" height="63" viewBox="0 0 63 63" width="63"><path d="m31.5 63c-4.3525 0-8.4449-.829-12.277-2.487-3.832-1.658-7.1745-3.9061-10.02763-6.7443-2.85314-2.8381-5.09897-6.1754-6.7375-10.012-1.638579-3.8365-2.45787-7.946-2.45787-12.3285 0-4.3571.819291-8.4483 2.45787-12.2736 1.63853-3.8253 3.88436-7.157 6.7375-9.99519 2.85313-2.83815 6.19563-5.07424 10.02763-6.70827 3.8321-1.634094 7.9245-2.45114 12.277-2.45114 4.357 0 8.4505.817046 12.2803 2.45114 3.8298 1.63403 7.1712 3.87012 10.0243 6.70827 2.8532 2.83819 5.099 6.16989 6.7376 9.99519 1.6385 3.8253 2.4578 7.9165 2.4578 12.2736 0 4.3825-.8193 8.492-2.4578 12.3285-1.6386 3.8366-3.8844 7.1739-6.7376 10.012-2.8531 2.8382-6.1945 5.0863-10.0243 6.7443s-7.9233 2.487-12.2803 2.487zm0-2.8359c2.2256-2.6085 4.04-5.2634 5.4429-7.9648 1.4031-2.7012 2.5503-5.7914 3.4418-9.2705h-17.7559c.9423 3.6227 2.1075 6.7839 3.4955 9.4837 1.3881 2.6998 3.18 5.2837 5.3757 7.7516zm-3.9308-.4263c-1.756-1.9998-3.3508-4.4995-4.7845-7.4992-1.4336-2.9996-2.5087-6.1029-3.2251-9.3098h-14.30067c2.1763 4.7206 5.16437 8.5048 8.96427 11.3526 3.7999 2.8479 8.2486 4.6667 13.346 5.4564zm7.9199-.0135c4.8312-.676 9.2103-2.4926 13.1374-5.4496 3.927-2.9571 6.9652-6.739 9.1146-11.3459h-14.2872c-.9498 3.2727-2.1318 6.3939-3.546 9.3636-1.4143 2.9699-2.8872 5.4472-4.4188 7.4319zm-31.24421-19.757h14.74491c-.2648-1.5586-.4477-3.0427-.5486-4.4524-.101-1.4097-.1514-2.772-.1514-4.0867 0-1.3506.0527-2.7143.1581-4.0912.1055-1.3768.2905-2.8161.5553-4.3178h-14.75831c-.42928 1.2774-.75049 2.6284-.96364 4.053-.21315 1.4247-.31973 2.8767-.31973 4.356 0 1.5092.10658 2.9828.31973 4.421.21315 1.4381.53436 2.8108.96364 4.1181zm17.73331 0h19.057c.2738-1.6244.4634-3.1025.5688-4.4344.1054-1.332.1582-2.7002.1582-4.1047 0-1.3656-.0528-2.7024-.1582-4.0104s-.295-2.7742-.5688-4.3986h-19.057c-.2737 1.6244-.4633 3.0906-.5688 4.3986-.1054 1.308-.1581 2.6448-.1581 4.0104 0 1.4045.0527 2.7727.1581 4.1047.1055 1.3319.2951 2.81.5688 4.4344zm22.0186 0h14.7583c.4293-1.3073.7505-2.68.9636-4.1181.2132-1.4382.3198-2.9118.3198-4.421 0-1.4793-.1066-2.9313-.3198-4.356-.2131-1.4246-.5343-2.7756-.9636-4.053h-14.7c.2349 1.6902.405 3.2117.5105 4.5647.1054 1.3528.1581 2.6343.1581 3.8443 0 1.3237-.0549 2.674-.1648 4.0508-.11 1.3768-.2973 2.8729-.5621 4.4883zm-.5564-19.9096h14.3007c-2.1464-4.7624-5.127-8.5847-8.9419-11.46704-3.8148-2.88225-8.271-4.68084-13.3684-5.39577 1.756 2.21515 3.3261 4.77694 4.7104 7.68541 1.3843 2.9084 2.484 5.9676 3.2992 9.1774zm-20.8116 0h17.8141c-.9153-3.4252-2.1119-6.5655-3.5897-9.4209-1.4778-2.85531-3.2622-5.44665-5.3532-7.77397-2.0342 2.13885-3.7573 4.58135-5.1692 7.32747-1.412 2.7462-2.646 6.0353-3.702 9.8674zm-17.36987 0h14.31407c.7973-3.1829 1.8783-6.2188 3.2432-9.1079 1.3648-2.88898 2.9297-5.4695 4.6947-7.74153-5.1124.74492-9.5581 2.55028-13.337 5.41608-3.779 2.86575-6.75063 6.67695-8.91497 11.43335z" fill="#1b1b1b"></path></svg>