<svg xmlns="http://www.w3.org/2000/svg" fill="none" height="63" viewBox="0 0 63 63" width="63"><path d="m20.9976 48.0577c.7241 0 1.3318-.2449 1.8231-.7346.4913-.4898.737-1.0967.737-1.8207 0-.7241-.2449-1.3318-.7346-1.8231-.4898-.4913-1.0967-.737-1.8207-.737-.7241 0-1.3318.2449-1.8231.7346-.4913.4898-.737 1.0967-.737 1.8207 0 .7241.2449 1.3318.7346 1.8231.4898.4913 1.0967.737 1.8207.737zm10.5 0c.7241 0 1.3318-.2449 1.8231-.7346.4913-.4898.737-1.0967.737-1.8207 0-.7241-.2449-1.3318-.7346-1.8231-.4898-.4913-1.0967-.737-1.8207-.737-.7241 0-1.3318.2449-1.8231.7346-.4913.4898-.737 1.0967-.737 1.8207 0 .7241.2449 1.3318.7346 1.8231.4898.4913 1.0967.737 1.8207.737zm10.5 0c.7241 0 1.3318-.2449 1.8231-.7346.4913-.4898.737-1.0967.737-1.8207 0-.7241-.2449-1.3318-.7346-1.8231-.4898-.4913-1.0967-.737-1.8207-.737-.7241 0-1.3318.2449-1.8231.7346-.4913.4898-.737 1.0967-.737 1.8207 0 .7241.2449 1.3318.7346 1.8231.4898.4913 1.0967.737 1.8207.737zm-14.1726-12.048 17.2645-17.2847-2.477-2.4972-14.8301 14.875-7.4151-7.4375-2.477 2.4097zm3.6867 26.9903c-4.3559 0-8.4512-.8266-12.2858-2.4797-3.8347-1.6531-7.1704-3.8967-10.00699-6.7306-2.83657-2.834-5.0822-6.1665-6.73689-9.9975-1.654679-3.8311-2.48202-7.9246-2.48202-12.2805s.826555-8.4512 2.47966-12.2858c1.65317-3.8347 3.89673-7.1704 6.73068-10.00699 2.83396-2.83657 6.16646-5.0822 9.99746-6.73688 3.8311-1.654686 7.9246-2.48203 12.2805-2.48203s8.4512.826553 12.2859 2.47966c3.8346 1.65317 7.1703 3.89673 10.0069 6.73068 2.8366 2.83396 5.0822 6.16646 6.7369 9.99746 1.6547 3.8311 2.482 7.9246 2.482 12.2805s-.8266 8.4512-2.4797 12.2859c-1.6531 3.8346-3.8967 7.1703-6.7306 10.0069-2.834 2.8366-6.1665 5.0822-9.9975 6.7369-3.8311 1.6547-7.9246 2.482-12.2805 2.482zm-.0117-3.5c7.8167 0 14.4375-2.7125 19.8625-8.1375s8.1375-12.0458 8.1375-19.8625-2.7125-14.4375-8.1375-19.8625-12.0458-8.1375-19.8625-8.1375-14.4375 2.7125-19.8625 8.1375-8.1375 12.0458-8.1375 19.8625 2.7125 14.4375 8.1375 19.8625 12.0458 8.1375 19.8625 8.1375z" fill="#1b1b1b"></path></svg>