<svg xmlns="http://www.w3.org/2000/svg" version="1.1" xmlns:xlink="http://www.w3.org/1999/xlink" xmlns:svgjs="http://svgjs.dev/svgjs" viewBox="0 0 1422 800" width="1422" height="800" opacity="0.91"><g transform="scale(1) rotate(0) translate(0 0) skewX(0) skewY(0)" transform-origin="711 400"><rect width="2844" height="1600" x="-711" y="-400" fill="url(#rrreplicate-pattern3)"></rect></g><defs><pattern id="rrreplicate-pattern3" width="68" height="68" patternUnits="userSpaceOnUse" patternTransform="rotate(52)" stroke-opacity="0.82" stroke-width="1" fill="none" stroke="#e1e1e1">
      <line x1="2.8333333333333335" y1="0" x2="2.8333333333333335" y2="68"></line><line x1="8.5" y1="0" x2="8.5" y2="68"></line><line x1="14.166666666666668" y1="0" x2="14.166666666666668" y2="68"></line><line x1="19.833333333333332" y1="0" x2="19.833333333333332" y2="68"></line><line x1="25.5" y1="0" x2="25.5" y2="68"></line><line x1="31.166666666666668" y1="0" x2="31.166666666666668" y2="68"></line><line x1="36.833333333333336" y1="0" x2="36.833333333333336" y2="68"></line><line x1="42.50000000000001" y1="0" x2="42.50000000000001" y2="68"></line><line x1="48.16666666666667" y1="0" x2="48.16666666666667" y2="68"></line><line x1="53.833333333333336" y1="0" x2="53.833333333333336" y2="68"></line><line x1="59.50000000000001" y1="0" x2="59.50000000000001" y2="68"></line><line x1="65.16666666666667" y1="0" x2="65.16666666666667" y2="68"></line>
      </pattern></defs></svg>