<svg xmlns="http://www.w3.org/2000/svg" version="1.1" xmlns:xlink="http://www.w3.org/1999/xlink" xmlns:svgjs="http://svgjs.dev/svgjs" viewBox="0 0 1422 800" width="1422" height="800" opacity="0.91"><g transform="scale(1) rotate(0) translate(0 0) skewX(0) skewY(0)" transform-origin="711 400"><rect width="2844" height="1600" x="-711" y="-400" fill="url(#rrreplicate-pattern3)"></rect></g><defs><pattern id="rrreplicate-pattern3" width="76" height="76" patternUnits="userSpaceOnUse" patternTransform="rotate(52)" stroke-opacity="0.59" stroke-width="1" fill="none" stroke="#e1e1e1">
      <line x1="3.1666666666666665" y1="0" x2="3.1666666666666665" y2="76"></line><line x1="9.5" y1="0" x2="9.5" y2="76"></line><line x1="15.833333333333332" y1="0" x2="15.833333333333332" y2="76"></line><line x1="22.166666666666668" y1="0" x2="22.166666666666668" y2="76"></line><line x1="28.5" y1="0" x2="28.5" y2="76"></line><line x1="34.83333333333333" y1="0" x2="34.83333333333333" y2="76"></line><line x1="41.166666666666664" y1="0" x2="41.166666666666664" y2="76"></line><line x1="47.49999999999999" y1="0" x2="47.49999999999999" y2="76"></line><line x1="53.83333333333333" y1="0" x2="53.83333333333333" y2="76"></line><line x1="60.166666666666664" y1="0" x2="60.166666666666664" y2="76"></line><line x1="66.5" y1="0" x2="66.5" y2="76"></line><line x1="72.83333333333333" y1="0" x2="72.83333333333333" y2="76"></line>
      </pattern></defs></svg>